Fixed-Bold.sfdir
StartChar: exclam
Encoding: 33 33 1
Width: 500
Flags: MW
LayerCount: 2
Fore
SplineSet
184 695 m 1xe0
 316 695 l 1xe0
 302 217 l 1
 198 217 l 1xd0
 186 652 l 5
 184 695 l 1xe0
EndSplineSet
Refer: 14 46 N 1 0 0 1 98 0 2
EndChar
StartChar: quotedbl
Encoding: 34 34 2
Width: 500
Flags: MW
LayerCount: 2
Fore
SplineSet
90 695 m 1
 227 695 l 1
 195 397 l 1
 195 397 l 1
 122 397 l 1
 90 695 l 1
273 695 m 1
 410 695 l 1
 378 397 l 1
 305 397 l 1
 305 397 l 1
 273 695 l 1
EndSplineSet
EndChar
StartChar: numbersign
Encoding: 35 35 3
Width: 500
Flags: MW
LayerCount: 2
Fore
SplineSet
12 145 m 0
 12 161 18 169 26 174 c 0
 37 181 52 181 66 181 c 2
 115 181 l 1
 156 346 l 1
 62 346 l 2
 43 346 29 349 20 357 c 0
 14 363 12 370 12 382 c 0
 12 395 16 404 22 409 c 0
 36 420 59 419 66 419 c 2
 175 419 l 1
 238 662 l 2
 241 669 241 675 244 679 c 0
 251 692 258 694 268 694 c 0
 285 694 298 676 298 659 c 0
 298 656 296 646 293 632 c 2
 239 419 l 1
 342 419 l 1
 404 660 l 2
 407 671 411 679 414 684 c 0
 420 692 426 694 435 694 c 0
 452 694 465 676 465 659 c 0
 465 655 461 641 457 622 c 2
 406 419 l 1
 440 419 l 2
 453 419 466 418 476 411 c 0
 484 406 488 396 488 382 c 0
 488 368 483 359 476 354 c 0
 464 346 447 346 440 346 c 2
 387 346 l 1
 346 181 l 1
 436 181 l 2
 454 181 469 179 478 172 c 0
 485 167 488 158 488 145 c 0
 488 132 485 123 478 118 c 0
 466 109 447 109 434 109 c 2
 327 109 l 1
 267 -126 l 2
 261 -144 257 -155 252 -160 c 0
 247 -165 243 -166 235 -166 c 0
 217 -166 204 -148 204 -130 c 0
 204 -127 204 -122 209 -103 c 2
 263 109 l 1
 160 109 l 1
 99 -132 l 2
 95 -144 91 -151 88 -156 c 0
 82 -164 76 -166 68 -166 c 0
 49 -166 38 -148 38 -130 c 0
 38 -127 39 -123 43 -106 c 2
 96 109 l 1
 62 109 l 2
 47 109 37 111 28 115 c 0
 18 120 12 129 12 145 c 0
179 181 m 1
 282 181 l 1
 324 346 l 1
 220 346 l 1
 179 181 l 1
EndSplineSet
EndChar
StartChar: dollar
Encoding: 36 36 4
Width: 500
Flags: MW
LayerCount: 2
Fore
SplineSet
30 58 m 1
 49 168 l 1
 97 131 132 105 220 91 c 1
 220 294 l 1
 217 295 215 295 212 296 c 0
 84 328 42 424 42 502 c 0
 42 664 147 696 220 704 c 1
 220 750 l 1
 292 750 l 1
 292 704 l 1
 355 700 401 681 451 650 c 1
 433 545 l 1
 401 567 362 597 292 603 c 1
 292 429 l 1
 423 399 470 294 470 206 c 0
 470 92 422 3 292 -9 c 1
 292 -56 l 1
 220 -56 l 1
 220 -10 l 1
 217 -7 135 -11 30 58 c 1
160 525 m 0
 160 467 212 450 220 446 c 1
 220 602 l 1
 219 602 l 1
 208 599 160 587 160 525 c 0
292 94 m 1
 306 98 353 111 353 183 c 0
 353 239 316 266 293 276 c 1
 292 246 l 1
 292 94 l 1
EndSplineSet
EndChar
StartChar: percent
Encoding: 37 37 5
Width: 543
Flags: W
LayerCount: 2
Fore
SplineSet
24 549 m 0
 24 640 58 750 145 750 c 0
 247 750 264 653 264 547 c 0
 264 436 244 347 144 347 c 0
 63 347 24 444 24 549 c 0
118 541 m 0
 118 465 119 420 148 420 c 0
 180 420 181 470 181 549 c 0
 181 616 180 677 148 677 c 0
 118 677 118 610 118 541 c 0
70 -14 m 0
 70 1 75 10 80 21 c 2
 376 723 l 2
 378 728 389 750 414 750 c 0
 439 750 456 729 456 708 c 0
 456 696 451 688 446 677 c 2
 144 -32 l 2
 142 -37 133 -55 110 -55 c 0
 87 -55 70 -37 70 -14 c 0
256 147 m 0
 256 265 283 347 377 347 c 0
 460 347 496 242 496 162 c 3
 496 65 472 -56 376 -56 c 0
 280 -56 256 28 256 147 c 0
346 138 m 0
 346 75 352 17 376 17 c 0
 411 17 412 90 412 146 c 0
 412 219 409 274 376 274 c 0
 351 274 346 225 346 138 c 0
EndSplineSet
EndChar
StartChar: ampersand
Encoding: 38 38 6
Width: 500
Flags: MW
LayerCount: 2
Fore
SplineSet
15 148 m 0xe8
 15 243 62 300 107 348 c 1
 96 393 90 426 90 489 c 0xd8
 90 611 136 717 205 717 c 0
 265 717 318 643 318 553 c 0
 318 515 304 454 283 420 c 0
 260 381 241 356 215 336 c 1
 242 248 282 175 288 163 c 1
 289 163 l 1
 319 207 333 251 343 283 c 0
 357 326 372 381 384 449 c 1
 462 417 l 1
 452 357 436 295 412 235 c 0
 394 189 370 144 341 102 c 1
 351 94 362 88 373 84 c 0
 382 81 392 78 404 78 c 0
 420 78 434 81 447 85 c 0
 461 89 473 95 485 101 c 1
 485 -5 l 1
 473 -10 462 -14 450 -17 c 0
 435 -21 419 -23 404 -23 c 0
 375 -23 345 -18 326 -8 c 0
 300 6 289 13 273 28 c 9
 273 28 l 17
 227 -14 179 -22 146 -22 c 0
 69 -22 15 55 15 148 c 0xe8
104 174 m 0xe8
 104 134 113 78 148 78 c 0
 176 78 192 92 210 101 c 1
 180 146 165 187 136 260 c 1
 122 245 104 211 104 174 c 0xe8
173 546 m 0
 173 491 173 453 186 422 c 1
 195 433 206 444 218 479 c 0
 225 500 230 524 230 552 c 0
 230 584 224 631 199 631 c 0xd8
 184 631 173 590 173 546 c 0
EndSplineSet
EndChar
StartChar: quotesingle
Encoding: 39 39 7
Width: 500
Flags: MW
LayerCount: 2
Fore
SplineSet
182 695 m 1
 318 695 l 1
 298 509 l 1
 286 397 l 1
 286 397 l 1
 214 397 l 1
 214 397 l 1
 182 695 l 1
EndSplineSet
EndChar
StartChar: parenleft
Encoding: 40 40 8
Width: 500
Flags: MW
LayerCount: 2
Fore
SplineSet
160 263 m 0
 160 458 222 633 368 750 c 1
 440 750 l 1
 418 723 391 688 366 637 c 0
 329 561 297 447 297 264 c 0
 297 -98 427 -196 440 -223 c 1
 368 -223 l 1
 222 -105 160 72 160 263 c 0
EndSplineSet
EndChar
StartChar: asterisk
Encoding: 42 42 10
Width: 500
Flags: MW
LayerCount: 2
Fore
SplineSet
43 426 m 0
 43 447 59 462 72 466 c 2
 210 514 l 1
 210 514 l 1
 64 563 43 562 43 602 c 0
 43 630 66 660 96 660 c 0
 121 660 133 638 230 550 c 1
 218 605 199 689 199 708 c 0
 199 736 228 750 250 750 c 0
 274 750 302 734 302 706 c 0
 302 691 296 675 270 550 c 1
 384 656 384 660 404 660 c 0
 434 660 457 630 457 602 c 0
 457 582 453 571 428 562 c 2
 290 514 l 1
 290 514 l 1
 435 465 457 467 457 426 c 0
 457 398 434 369 404 369 c 0
 379 369 367 391 270 478 c 1
 282 427 302 329 302 322 c 0
 302 294 274 278 250 278 c 0
 225 278 198 296 198 322 c 0
 198 338 207 366 230 478 c 1
 117 372 116 369 97 369 c 0
 66 369 43 398 43 426 c 0
EndSplineSet
EndChar
StartChar: plus
Encoding: 43 43 11
Width: 500
Flags: MW
LayerCount: 2
Fore
SplineSet
36 264 m 0
 36 279 47 293 62 298 c 0
 71 301 80 300 88 300 c 2
 214 300 l 1
 214 486 l 2
 214 495 214 504 216 512 c 0
 221 527 234 539 250 539 c 0
 266 539 280 528 284 513 c 0
 287 504 286 495 286 487 c 2
 286 300 l 1
 412 300 l 2
 421 300 430 301 438 298 c 0
 453 294 464 280 464 264 c 0
 464 248 453 234 438 229 c 0
 430 227 422 227 414 227 c 2
 286 227 l 1
 286 41 l 2
 287 22 284 6 274 -3 c 0
 268 -8 260 -11 250 -11 c 0
 234 -11 221 0 216 15 c 0
 214 23 214 32 214 40 c 2
 214 227 l 1
 88 227 l 2
 86 227 84 227 82 227 c 0
 75 227 68 228 62 229 c 0
 47 234 36 248 36 264 c 0
EndSplineSet
EndChar
StartChar: hyphen
Encoding: 45 45 13
Width: 500
Flags: MW
LayerCount: 2
Fore
SplineSet
104 200 m 1
 104 273 l 1
 396 273 l 1
 396 200 l 1
 104 200 l 1
EndSplineSet
EndChar
StartChar: slash
Encoding: 47 47 15
Width: 500
Flags: MW
LayerCount: 2
Fore
SplineSet
37 -186 m 0
 37 -175 42 -165 45 -156 c 2
 384 704 l 2
 390 717 398 750 427 750 c 0
 446 750 463 736 463 714 c 0
 463 704 459 695 456 687 c 2
 117 -173 l 2
 112 -184 108 -201 97 -212 c 0
 92 -217 86 -221 78 -222 c 0
 76 -222 75 -222 73 -222 c 0
 56 -222 37 -208 37 -186 c 0
EndSplineSet
EndChar
StartChar: one
Encoding: 49 49 17
Width: 500
Flags: W
LayerCount: 2
Fore
SplineSet
61 575 m 1
 61 648 l 1
 177 648 245 670 301 717 c 1
 336 717 l 1
 336 73 l 1
 454 73 l 1
 454 0 l 1
 76 0 l 1
 76 73 l 1
 198 73 l 1
 198 591 l 1
 156 579 109 575 61 575 c 1
EndSplineSet
EndChar
StartChar: four
Encoding: 52 52 20
Width: 500
Flags: W
LayerCount: 2
Fore
SplineSet
24 152 m 1
 24 247 l 1
 24 247 l 1
 242 695 l 1
 390 695 l 1
 390 247 l 1
 480 247 l 1
 480 152 l 1
 390 152 l 1
 390 0 l 1
 267 0 l 1
 267 152 l 1
 24 152 l 1
129 247 m 1
 271 247 l 1
 271 592 l 1
 257 528 227 466 129 247 c 1
EndSplineSet
EndChar
StartChar: seven
Encoding: 55 55 23
Width: 500
Flags: W
LayerCount: 2
Fore
SplineSet
36 587 m 1
 36 695 l 1
 474 695 l 1
 474 594 l 1
 331 422 275 200 275 -11 c 1
 133 -11 l 1
 133 214 222 433 395 588 c 1
 36 587 l 1
EndSplineSet
EndChar
StartChar: nine
Encoding: 57 57 25
Width: 500
Flags: W
LayerCount: 2
Fore
SplineSet
36 443 m 0
 36 513 36 573 79 632 c 0
 115 682 163 717 285 717 c 0
 364 717 416 695 449 662 c 0
 526 585 529 444 529 359 c 0
 529 255 520 124 438 45 c 0
 388 -3 304 -22 225 -22 c 0
 155 -22 115 -5 70 26 c 1
 118 110 l 1
 148 87 172 73 225 73 c 0
 283 73 332 96 356 131 c 0
 374 159 388 213 388 296 c 2
 388 305 l 1
 369 264 323 202 226 202 c 0
 134 202 98 241 77 273 c 0
 40 328 36 381 36 443 c 0
176 450 m 2
 178 335 183 318 202 298 c 0
 220 281 247 275 273 275 c 0
 302 275 338 284 362 324 c 4
 378 350 388 389 388 448 c 0
 388 525 387 628 283 628 c 0
 255 628 233 623 219 614 c 0
 172 586 180 522 176 482 c 2
 176 450 l 2
EndSplineSet
EndChar
StartChar: less
Encoding: 60 60 28
Width: 500
Flags: MW
LayerCount: 2
Fore
SplineSet
16 263 m 1
 18 277 17 282 44 304 c 2
 417 611 l 2
 423 616 434 624 448 624 c 0
 466 624 484 610 484 589 c 0
 484 570 472 561 461 553 c 2
 111 263 l 1
 461 -25 l 18
 469 -31 484 -42 484 -61 c 0
 484 -83 466 -97 448 -97 c 0
 436 -97 428 -92 418 -84 c 2
 45 223 l 2
 12 250 19 255 16 263 c 1
EndSplineSet
EndChar
StartChar: equal
Encoding: 61 61 29
Width: 500
Flags: MW
LayerCount: 2
Fore
SplineSet
15 382 m 0
 15 395 20 403 26 408 c 0
 39 419 59 418 60 419 c 1
 440 419 l 1
 452 417 465 415 474 408 c 0
 481 403 485 395 485 382 c 0
 485 368 480 360 473 355 c 0
 460 345 442 347 441 346 c 1
 58 346 l 2
 47 346 34 349 25 356 c 0
 19 361 15 369 15 382 c 0
15 145 m 0
 15 159 20 167 27 172 c 0
 40 182 58 180 58 181 c 1
 68 181 l 1
 441 181 l 2
 451 180 462 179 471 174 c 0
 479 169 485 160 485 145 c 0
 485 130 478 121 470 116 c 0
 457 108 440 110 440 109 c 1
 59 109 l 2
 48 109 35 112 26 119 c 0
 19 124 15 132 15 145 c 0
EndSplineSet
EndChar
StartChar: greater
Encoding: 62 62 30
Width: 500
Flags: MW
LayerCount: 2
Fore
SplineSet
16 -61 m 0
 16 -42 31 -31 39 -25 c 10
 389 263 l 1
 39 553 l 2
 28 561 16 570 16 589 c 0
 16 610 34 624 52 624 c 0
 66 624 77 616 83 611 c 2
 456 304 l 2
 483 282 482 277 484 263 c 1
 481 255 488 250 455 223 c 2
 82 -84 l 2
 72 -92 64 -97 52 -97 c 0
 34 -97 16 -83 16 -61 c 0
EndSplineSet
EndChar
StartChar: question
Encoding: 63 63 31
Width: 500
Flags: MW
LayerCount: 2
Fore
SplineSet
52 657 m 1
 102 685 157 704 230 706 c 2
 242 706 l 2xd8
 397 706 448 644 448 557 c 0
 448 469 394 441 378 428 c 0
 288 355 288 284 288 250 c 2
 288 217 l 1
 182 217 l 1
 182 249 l 2
 182 410 283 479 302 511 c 0
 311 528 312 552 312 562 c 0
 312 621 293 633 238 633 c 0
 168 633 120 602 86 562 c 1
 52 657 l 1
EndSplineSet
Refer: 14 46 S 1 0 0 1 84 0 2
EndChar
StartChar: at
Encoding: 64 64 32
Width: 516
Flags: W
LayerCount: 2
Fore
SplineSet
30 346 m 0
 30 444 51 543 99 613 c 0
 138 669 194 706 272 706 c 0
 345 706 389 675 416 625 c 0
 451 559 456 462 456 360 c 0
 456 262 403 118 290 118 c 0
 200 118 182 237 182 349 c 0
 182 475 206 576 288 577 c 1
 300 576 312 574 322 571 c 1
 308 625 285 633 270 633 c 0
 225 633 196 601 178 553 c 0
 157 498 150 422 150 347 c 0
 150 272 155 180 185 121 c 4
 204 85 232 61 274 61 c 0
 316 61 349 87 364 89 c 2
 380 90 l 1
 456 90 l 1
 402 36 326 -11 271 -11 c 0
 205 -11 151 18 111 67 c 0
 58 132 30 232 30 346 c 0
261 339 m 0
 261 297 263 267 267 245 c 0
 275 199 288 190 298 190 c 0
 308 190 323 203 330 249 c 0
 335 282 335 314 335 354 c 0
 335 400 332 433 328 455 c 0
 320 495 308 504 298 504 c 0
 285 504 273 487 267 446 c 0
 262 412 261 380 261 339 c 0
EndSplineSet
EndChar
StartChar: A
Encoding: 65 65 33
Width: 500
Flags: W
LayerCount: 2
Fore
SplineSet
10 0 m 1
 199 695 l 1
 292 695 l 1
 490 0 l 1
 337 0 l 1
 310 150 l 1
 172 150 l 1
 146 0 l 1
 10 0 l 1
188 237 m 1
 296 237 l 1
 248 521 l 1
 242 569 l 1
 236 512 224 457 188 237 c 1
EndSplineSet
EndChar
StartChar: B
Encoding: 66 66 34
Width: 500
Flags: W
LayerCount: 2
Fore
SplineSet
34 0 m 1
 34 695 l 1
 232 695 l 2
 344 695 449 600 449 514 c 4xf8
 449 394 325 369 307 363 c 1
 353 356 465 327 465 193 c 3xf4
 465 78 369 0 245 0 c 2
 34 0 l 1
176 87 m 1
 241 87 l 2
 301 87 326 129 326 197 c 0xf4
 326 276 302 325 232 325 c 2
 177 325 l 25
 176 290 l 17
 176 87 l 1
176 398 m 1
 225 398 l 2
 282 398 312 439 312 511 c 0xf8
 312 550 299 608 237 608 c 2
 177 608 l 25
 176 576 l 17
 176 398 l 1
EndSplineSet
EndChar
StartChar: C
Encoding: 67 67 35
Width: 500
Flags: W
LayerCount: 2
Fore
SplineSet
36 346 m 0
 36 643 198 717 296 717 c 0
 336 717 384 705 452 682 c 1
 428 551 l 1
 391 577 347 616 295 616 c 0
 210 616 184 497 184 349 c 0
 184 203 206 78 296 78 c 0
 352 78 383 98 454 144 c 1
 464 33 l 1
 379 -13 341 -23 295 -23 c 0
 195 -23 36 59 36 346 c 0
EndSplineSet
EndChar
StartChar: D
Encoding: 68 68 36
Width: 500
Flags: W
LayerCount: 2
Fore
SplineSet
17 0 m 1
 17 695 l 1
 235 695 l 2
 391 695 483 550 483 340 c 0
 483 77 345 0 235 0 c 2
 17 0 l 1
162 87 m 1
 214 87 l 2
 312 87 337 201 338 320 c 0
 338 452 339 608 218 608 c 2
 162 608 l 1
 162 87 l 1
EndSplineSet
EndChar
StartChar: E
Encoding: 69 69 37
Width: 500
Flags: W
LayerCount: 2
Fore
SplineSet
57 0 m 1
 57 692 l 1x6c
 428 692 l 1
 428 587 l 1x34
 205 590 l 1
 205 407 l 1
 397 407 l 1
 397 312 l 1
 205 312 l 1
 205 107 l 1xac
 443 111 l 1
 443 0 l 1x64
 57 0 l 1
EndSplineSet
EndChar
StartChar: F
Encoding: 70 70 38
Width: 500
Flags: W
LayerCount: 2
Fore
SplineSet
64 0 m 1
 64 692 l 1xd8
 436 692 l 1
 436 587 l 1xe8
 212 590 l 1
 212 394 l 1xd8
 390 394 l 1
 390 299 l 1
 212 299 l 1
 212 0 l 1
 64 0 l 1
EndSplineSet
EndChar
StartChar: G
Encoding: 71 71 39
Width: 500
Flags: W
LayerCount: 2
Fore
SplineSet
29 348 m 0
 29 575 132 717 286 717 c 0
 330 717 385 703 461 668 c 1
 438 537 l 1
 407 562 356 617 287 617 c 0
 197 617 177 483 177 348 c 0
 177 205 199 78 288 78 c 0
 311 78 330 87 334 88 c 1
 334 233 l 1
 286 233 l 1
 286 328 l 1
 471 328 l 1
 471 26 l 1
 406 -1 332 -22 286 -22 c 0
 102 -22 29 156 29 348 c 0
EndSplineSet
EndChar
StartChar: H
Encoding: 72 72 40
Width: 500
Flags: W
LayerCount: 2
Fore
SplineSet
23 0 m 1
 23 695 l 1
 171 695 l 1
 171 409 l 1
 329 409 l 1
 329 695 l 1
 477 695 l 1
 477 0 l 1
 329 0 l 1
 329 314 l 1
 171 314 l 1
 171 0 l 1
 23 0 l 1
EndSplineSet
EndChar
StartChar: I
Encoding: 73 73 41
Width: 500
Flags: MW
LayerCount: 2
Fore
SplineSet
176 0 m 1
 176 695 l 1
 324 695 l 1
 324 0 l 1
 176 0 l 1
EndSplineSet
EndChar
StartChar: J
Encoding: 74 74 42
Width: 500
Flags: MW
LayerCount: 2
Fore
SplineSet
59 19 m 1
 80 140 l 1
 94 121 127 75 197 75 c 0
 290 75 296 130 296 152 c 2
 296 695 l 1
 441 695 l 1
 441 155 l 2
 441 13 338 -22 247 -22 c 0
 191 -22 128 -12 59 19 c 1
EndSplineSet
EndChar
StartChar: K
Encoding: 75 75 43
Width: 500
Flags: W
LayerCount: 2
Fore
SplineSet
24 0 m 1
 24 695 l 1
 154 695 l 1
 154 376 l 1
 314 695 l 1
 460 695 l 1
 283 402 l 1
 476 0 l 1
 327 0 l 1
 207 296 l 1
 154 218 l 1
 154 0 l 1
 24 0 l 1
EndSplineSet
EndChar
StartChar: L
Encoding: 76 76 44
Width: 500
Flags: W
LayerCount: 2
Fore
SplineSet
54 0 m 1x70
 54 695 l 1
 195 695 l 1
 195 101 l 1xb0
 446 105 l 1
 446 0 l 1x70
 54 0 l 1x70
EndSplineSet
EndChar
StartChar: M
Encoding: 77 77 45
Width: 500
Flags: W
LayerCount: 2
Fore
SplineSet
10 0 m 1
 10 695 l 1
 162 695 l 1
 186 521 226 303 249 148 c 1
 250 148 l 1
 278 357 305 497 337 695 c 1
 490 695 l 1
 490 0 l 1
 366 0 l 1
 366 531 l 1
 366 553 366 569 366 569 c 1
 364 555 362 543 360 532 c 8
 340 355 306 191 278 22 c 1
 220 22 l 1
 193 176 150 426 132 569 c 1
 132 0 l 1
 10 0 l 1
EndSplineSet
EndChar
StartChar: N
Encoding: 78 78 46
Width: 500
Flags: W
LayerCount: 2
Fore
SplineSet
36 0 m 1
 36 695 l 1
 193 695 l 1
 321 196 l 1
 340 120 l 1
 340 695 l 1
 464 695 l 1
 464 0 l 1
 306 0 l 1
 173 518 l 1
 158 574 l 1
 158 0 l 1
 36 0 l 1
EndSplineSet
EndChar
StartChar: O
Encoding: 79 79 47
Width: 500
Flags: W
LayerCount: 2
Fore
SplineSet
8 345 m 0
 8 629 130 717 249 717 c 4
 398 717 492 617 492 343 c 0
 492 154 425 -22 250 -22 c 0
 68 -22 8 161 8 345 c 0
155 348 m 0
 155 204 172 62 250 62 c 0
 325 62 343 199 343 346 c 0
 343 560 305 638 249 638 c 0
 197 638 155 570 155 348 c 0
EndSplineSet
EndChar
StartChar: P
Encoding: 80 80 48
Width: 500
Flags: W
LayerCount: 2
Fore
SplineSet
40 0 m 1
 40 695 l 1
 254 695 l 2
 378 695 460 604 460 478 c 0
 460 331 338 268 262 268 c 2
 188 268 l 1
 188 0 l 1
 40 0 l 1
186 347 m 1
 244 347 l 2
 292 347 320 365 320 477 c 0
 320 592 292 608 244 608 c 2
 186 608 l 1
 186 347 l 1
EndSplineSet
EndChar
StartChar: Q
Encoding: 81 81 49
Width: 500
Flags: W
LayerCount: 2
Fore
SplineSet
10 342 m 0
 10 566 68 717 252 717 c 0
 446 717 490 500 490 343 c 0
 490 186 486 84 395 26 c 1
 460 -111 l 1
 316 -111 l 1
 285 -18 l 1
 267 -21 264 -22 250 -22 c 0
 84 -22 10 192 10 342 c 0
154 339 m 0
 154 252 151 56 250 56 c 0
 253 56 256 56 260 57 c 1
 214 195 l 1
 319 195 l 1
 342 138 l 1
 342 138 l 1
 346 146 346 231 346 342 c 0
 346 456 346 639 250 639 c 0
 151 639 154 419 154 339 c 0
EndSplineSet
EndChar
StartChar: R
Encoding: 82 82 50
Width: 500
Flags: W
LayerCount: 2
Fore
SplineSet
32 0 m 1
 32 695 l 1
 230 695 l 6
 386 695 449 584 449 497 c 0
 449 400 388 332 330 321 c 1
 468 0 l 1
 320 0 l 1
 232 311 l 1
 177 311 l 1
 177 0 l 1
 32 0 l 1
177 384 m 1
 236 384 l 2
 298 384 309 421 309 496 c 0
 309 571 298 608 237 608 c 2
 177 608 l 1
 177 384 l 1
EndSplineSet
EndChar
StartChar: S
Encoding: 83 83 51
Width: 500
Flags: W
LayerCount: 2
Fore
SplineSet
31 47 m 1
 54 179 l 1
 122 124 178 87 253 87 c 0
 330 87 343 145 343 184 c 0
 343 235 313 265 289 277 c 0
 243 299 146 294 75 402 c 0
 57 429 43 464 43 509 c 0
 43 615 95 716 255 717 c 2
 258 717 l 2
 320 717 361 705 438 668 c 1
 415 537 l 1
 386 561 341 613 257 613 c 0
 183 613 169 561 169 527 c 0
 169 479 195 458 229 444 c 4
 262 431 302 425 331 409 c 0
 401 378 469 305 469 199 c 0
 469 88 419 -22 253 -22 c 0
 183 -22 109 3 31 47 c 1
EndSplineSet
EndChar
StartChar: T
Encoding: 84 84 52
Width: 500
Flags: W
LayerCount: 2
Fore
SplineSet
10 584 m 1
 10 689 l 1
 490 689 l 1
 490 584 l 1
 324 588 l 1
 324 0 l 1
 176 0 l 1
 176 588 l 1
 10 584 l 1
EndSplineSet
EndChar
StartChar: U
Encoding: 85 85 53
Width: 500
Flags: W
LayerCount: 2
Fore
SplineSet
34 246 m 2
 34 695 l 1
 182 695 l 1
 182 230 l 2
 182 153 181 64 254 64 c 0
 329 64 329 159 329 232 c 2
 329 695 l 1
 466 695 l 1
 466 242 l 2
 466 107 387 -22 255 -22 c 0
 112 -22 34 102 34 246 c 2
EndSplineSet
EndChar
StartChar: V
Encoding: 86 86 54
Width: 500
Flags: W
LayerCount: 2
Fore
SplineSet
34 695 m 1
 172 695 l 1
 203 526 261 212 277 125 c 1
 336 695 l 1
 466 695 l 1
 364 0 l 1
 174 0 l 1
 34 695 l 1
EndSplineSet
EndChar
StartChar: W
Encoding: 87 87 55
Width: 500
Flags: W
LayerCount: 2
Fore
SplineSet
6 695 m 1
 138 695 l 1
 139 675 155 326 156 125 c 1
 156 321 172 695 172 695 c 1
 336 695 l 1
 336 695 355 256 356 125 c 1
 355 275 373 636 375 695 c 1
 494 695 l 1
 436 0 l 1
 267 0 l 1
 267 0 247 338 247 569 c 1
 247 338 227 0 227 0 c 1
 64 0 l 1
 6 695 l 1
EndSplineSet
EndChar
StartChar: X
Encoding: 88 88 56
Width: 500
Flags: W
LayerCount: 2
Fore
SplineSet
8 0 m 1
 161 368 l 1
 24 695 l 1
 188 695 l 1
 244 568 l 1
 296 695 l 1
 446 695 l 1
 324 383 l 1
 492 0 l 1
 314 0 l 1
 243 173 l 1
 176 0 l 1
 8 0 l 1
EndSplineSet
EndChar
StartChar: Y
Encoding: 89 89 57
Width: 500
Flags: W
LayerCount: 2
Fore
SplineSet
8 695 m 1
 157 695 l 1
 218 516 l 2
 240 451 250 422 254 403 c 1
 263 447 348 683 352 695 c 1
 492 695 l 1
 321 278 l 1
 321 0 l 1
 176 0 l 1
 176 278 l 1
 8 695 l 1
EndSplineSet
EndChar
StartChar: Z
Encoding: 90 90 58
Width: 500
Flags: W
LayerCount: 2
Fore
SplineSet
51 0 m 1
 51 67 l 1
 51 67 l 1
 294 599 l 1
 66 595 l 1
 66 695 l 1
 443 695 l 1
 443 631 l 1
 443 631 l 5
 204 101 l 1
 449 105 l 1
 449 0 l 1
 51 0 l 1
EndSplineSet
EndChar
StartChar: bracketleft
Encoding: 91 91 59
Width: 500
Flags: MW
LayerCount: 2
Fore
SplineSet
143 -222 m 1
 143 750 l 1
 476 750 l 1
 476 678 l 1
 277 678 l 1
 277 -150 l 1
 476 -150 l 1
 476 -222 l 1
 143 -222 l 1
EndSplineSet
EndChar
StartChar: backslash
Encoding: 92 92 130
Width: 500
Flags: MW
LayerCount: 2
Fore
SplineSet
37 714 m 0
 37 735 55 750 72 750 c 0
 98 750 106 727 112 713 c 2
 462 -175 l 2
 463 -178 463 -182 463 -186 c 0
 463 -204 448 -222 427 -222 c 0
 402 -222 393 -199 386 -180 c 2
 44 685 l 2
 41 694 37 703 37 714 c 0
EndSplineSet
EndChar
StartChar: bracketright
Encoding: 93 93 61
Width: 500
Flags: MW
LayerCount: 2
Fore
SplineSet
24 -150 m 1
 224 -150 l 1
 224 678 l 1
 24 678 l 1
 24 750 l 1
 357 750 l 1
 357 -222 l 1
 24 -222 l 1
 24 -150 l 1
EndSplineSet
EndChar
StartChar: asciicircum
Encoding: 94 94 62
Width: 500
Flags: MW
LayerCount: 2
Fore
SplineSet
84 472 m 1
 196 620 l 1
 304 620 l 1
 416 472 l 1
 344 472 l 1
 250 558 l 1
 156 472 l 1
 84 472 l 1
EndSplineSet
EndChar
StartChar: underscore
Encoding: 95 95 63
Width: 500
Flags: MW
LayerCount: 2
Fore
SplineSet
0 -297 m 0
 0 -281 9 -255 49 -255 c 2
 446 -255 l 2
 493 -255 500 -280 500 -297 c 0
 500 -312 493 -339 448 -339 c 2
 50 -339 l 2
 5 -339 0 -311 0 -297 c 0
EndSplineSet
EndChar
StartChar: grave
Encoding: 96 96 64
Width: 500
Flags: MW
LayerCount: 2
Fore
SplineSet
132 681 m 1
 270 681 l 1
 368 542 l 1
 294 542 l 1
 132 681 l 1
EndSplineSet
EndChar
StartChar: a
Encoding: 97 97 65
Width: 500
Flags: W
LayerCount: 2
Fore
SplineSet
52 129 m 0
 52 279 314 267 315 270 c 1
 315 311 l 2
 314 331 315 371 301 397 c 0
 293 412 279 422 257 422 c 0
 181 422 137 370 112 346 c 1
 104 446 l 1
 164 476 203 489 260 489 c 0
 400 489 448 420 448 315 c 2
 448 0 l 1
 316 0 l 1
 316 69 l 1
 288 17 238 -11 188 -11 c 0
 107 -11 52 60 52 129 c 0
182 131 m 0
 182 94 203 62 237 62 c 0
 263 62 315 80 315 154 c 2
 315 229 l 1
 264 224 182 210 182 131 c 0
EndSplineSet
EndChar
StartChar: b
Encoding: 98 98 66
Width: 500
Flags: W
LayerCount: 2
Fore
SplineSet
37 0 m 1
 37 695 l 1
 171 695 l 1
 171 424 l 1
 203 456 245 483 300 483 c 0x7c
 429 483 463 366 463 234 c 0
 463 58 384 -11 277 -11 c 0xbc
 231 -11 200 12 174 44 c 1
 174 0 l 1
 37 0 l 1
174 97 m 1
 177 93 183 87 190 80 c 4
 200 71 214 62 236 62 c 0
 319 62 326 138 326 232 c 0
 326 331 324 411 245 411 c 0
 215 411 195 398 174 378 c 1
 174 97 l 1
EndSplineSet
EndChar
StartChar: c
Encoding: 99 99 67
Width: 500
Flags: W
LayerCount: 2
Fore
SplineSet
56 237 m 0
 56 439 169 489 278 489 c 0
 343 489 377 478 438 446 c 1
 422 351 l 1
 380 383 355 411 278 411 c 0
 197 411 194 326 193 257 c 2
 193 228 l 2
 193 132 207 67 277 67 c 0
 357 67 410 112 436 133 c 1
 444 35 l 1
 386 4 335 -11 274 -11 c 0
 103 -11 56 107 56 237 c 0
EndSplineSet
EndChar
StartChar: d
Encoding: 100 100 68
Width: 500
Flags: W
LayerCount: 2
Fore
SplineSet
37 238 m 0
 37 316 49 398 106 445 c 0
 137 472 178 483 212 483 c 0xbc
 262 483 300 458 329 428 c 1
 329 695 l 1
 463 695 l 1xba
 463 0 l 1
 326 0 l 1
 326 52 l 1
 296 15 261 -11 211 -11 c 0
 186 -11 112 -5 69 72 c 0
 44 118 37 172 37 238 c 0
174 250 m 0
 174 169 176 124 194 94 c 0
 208 72 232 61 254 61 c 0
 302 61 324 102 326 103 c 1
 326 382 l 1xbc
 321 387 316 390 311 394 c 4
 300 403 289 408 275 410 c 0
 272 410 268 411 264 411 c 0
 179 411 174 328 174 250 c 0
EndSplineSet
EndChar
StartChar: e
Encoding: 101 101 69
Width: 500
Flags: W
LayerCount: 2
Fore
SplineSet
46 240 m 0
 46 368 93 489 262 489 c 0
 432 489 454 360 454 250 c 1
 454 250 l 1
 174 250 l 1
 174 202 175 149 198 108 c 0
 208 91 230 62 278 62 c 0
 349 62 408 103 441 129 c 1
 448 38 l 1
 415 19 354 -11 273 -11 c 0
 169 -11 46 39 46 240 c 0
177 304 m 1
 341 304 l 1
 332 397 293 416 263 416 c 0
 194 416 181 331 177 304 c 1
EndSplineSet
EndChar
StartChar: f
Encoding: 102 102 70
Width: 500
Flags: W
LayerCount: 2
Fore
SplineSet
113 400 m 1
 113 472 l 1
 169 472 l 1
 169 540 l 2
 169 554 170 567 172 579 c 0
 179 619 196 647 221 667 c 0
 258 696 310 706 363 706 c 0
 397 706 419 703 456 695 c 1
 456 594 l 1
 429 618 407 633 363 633 c 0
 340 633 327 628 318 620 c 0
 302 606 299 583 299 567 c 2
 299 472 l 1
 390 472 l 1
 390 400 l 1
 302 400 l 1
 302 0 l 1
 169 0 l 1
 169 400 l 1
 113 400 l 1
EndSplineSet
EndChar
StartChar: g
Encoding: 103 103 71
Width: 500
Flags: W
LayerCount: 2
Fore
SplineSet
154 295 m 2xea80
 154 269 155 244 168 228 c 0
 176 217 190 211 211 211 c 0
 234 211 248 217 257 228 c 0
 270 244 271 269 271 296 c 2
 271 313 l 2
 271 338 269 362 258 378 c 0
 250 390 236 397 214 397 c 0
 187 397 172 388 164 374 c 0
 154 358 154 335 154 312 c 2
 154 295 l 2xea80
111 -63 m 0xe440
 111 -87 123 -103 142 -114 c 0
 167 -130 201 -134 236 -134 c 2
 240 -134 l 2
 296 -134 333 -123 353 -108 c 0
 370 -95 375 -80 375 -67 c 0
 375 -27 327 -17 241 -17 c 2
 183 -17 l 1
 166 -17 l 2
 139 -17 111 -21 111 -63 c 0xe440
8 -65 m 0xec40
 8 -9 42 17 64 29 c 1
 40 66 38 92 38 108 c 0xe9
 38 140 48 166 65 190 c 1
 65 192 l 1
 44 215 25 250 25 303 c 0
 25 343 34 395 80 430 c 0
 110 453 156 469 212 469 c 2
 214 469 l 2xea
 291 469 313 445 330 445 c 0
 342 445 410 468 473 468 c 1
 492 394 l 1xf2
 479 394 445 398 429 398 c 2
 375 397 l 1xea40
 394 365 399 336 399 304 c 0xe880
 399 265 390 214 347 179 c 0
 317 155 270 138 212 138 c 0
 180 138 154 142 111 159 c 1xec80
 110 153 109 147 109 141 c 0xe9
 109 122 117 92 164 92 c 2
 249 92 l 2
 302 92 360 88 403 67 c 4
 437 51 463 25 473 -18 c 1
 476 -31 478 -46 478 -63 c 0
 478 -106 459 -157 386 -185 c 0
 336 -204 282 -206 237 -206 c 0
 205 -206 145 -206 88 -180 c 0
 59 -167 34 -147 20 -117 c 0
 12 -101 8 -83 8 -65 c 0xec40
EndSplineSet
EndChar
StartChar: h
Encoding: 104 104 72
Width: 500
Flags: W
LayerCount: 2
Fore
SplineSet
46 0 m 1
 46 695 l 1
 180 695 l 1
 180 379 l 1
 194 417 231 483 309 483 c 0
 446 483 454 404 454 314 c 0
 454 300 453 286 453 273 c 2
 453 0 l 1
 317 0 l 1
 317 327 l 2
 317 374 309 411 262 411 c 0
 208 411 185 341 182 291 c 2
 182 0 l 1
 46 0 l 1
EndSplineSet
EndChar
StartChar: i
Encoding: 105 105 73
Width: 500
Flags: W
LayerCount: 2
Fore
SplineSet
183 0 m 1
 183 472 l 1
 317 472 l 1
 317 0 l 1
 183 0 l 1
183 573 m 1
 183 695 l 1
 317 695 l 1
 317 573 l 1
 183 573 l 1
EndSplineSet
EndChar
StartChar: j
Encoding: 106 106 74
Width: 500
Flags: W
LayerCount: 2
Fore
SplineSet
66 -148 m 1
 87 -76 l 1
 115 -88 132 -93 162 -93 c 0
 202 -93 219 -85 225 -72 c 0
 227 -67 228 -61 228 -55 c 2
 228 472 l 1
 362 472 l 1
 362 -34 l 2
 361 -63 363 -110 330 -143 c 0
 309 -164 274 -178 215 -178 c 0
 155 -178 107 -165 66 -148 c 1
228 573 m 1
 228 695 l 1
 362 695 l 1
 362 573 l 1
 228 573 l 1
EndSplineSet
EndChar
StartChar: k
Encoding: 107 107 75
Width: 500
Flags: W
LayerCount: 2
Fore
SplineSet
48 0 m 1
 48 695 l 1
 166 695 l 1
 166 316 l 1
 285 472 l 1
 428 472 l 1
 269 293 l 1
 452 0 l 1
 318 0 l 1
 206 209 l 1
 162 155 l 1
 162 0 l 1
 48 0 l 1
EndSplineSet
EndChar
StartChar: l
Encoding: 108 108 76
Width: 500
Flags: W
LayerCount: 2
Fore
SplineSet
183 0 m 1
 183 695 l 1
 317 695 l 1
 317 0 l 1
 183 0 l 1
EndSplineSet
EndChar
StartChar: m
Encoding: 109 109 77
Width: 500
Flags: W
LayerCount: 2
Fore
SplineSet
37 0 m 1xdc
 37 478 l 1
 128 478 l 1
 128 415 l 1
 129 373 l 1
 139 414 158 483 197 483 c 0xec
 291 483 286 410 296 379 c 1
 304 417 324 484 362 484 c 0
 399 484 410 478 431 463 c 0
 462 441 463 376 463 314 c 0
 463 300 462 286 462 273 c 2
 462 0 l 1
 366 0 l 1
 366 327 l 2
 366 375 362 411 339 411 c 0
 311 411 300 341 298 291 c 2
 298 0 l 1
 201 0 l 1
 201 327 l 2
 201 375 198 411 174 411 c 0
 147 411 136 341 134 291 c 2
 134 0 l 1
 37 0 l 1xdc
EndSplineSet
EndChar
StartChar: n
Encoding: 110 110 78
Width: 500
Flags: W
LayerCount: 2
Fore
SplineSet
46 0 m 1xd8
 46 478 l 1
 177 478 l 1
 177 415 l 1
 178 373 l 1
 193 415 231 483 309 483 c 0
 360 483 394 471 416 452 c 4
 451 421 454 370 454 315 c 0
 454 301 453 288 453 274 c 2
 453 0 l 1
 317 0 l 1
 317 327 l 2xe8
 317 374 310 411 263 411 c 0
 209 411 186 341 183 291 c 2
 183 0 l 1
 46 0 l 1xd8
EndSplineSet
EndChar
StartChar: o
Encoding: 111 111 79
Width: 500
Flags: W
LayerCount: 2
Fore
SplineSet
28 239 m 0
 28 436 148 489 250 489 c 0
 352 489 472 436 472 239 c 0
 472 28 352 -11 250 -11 c 0
 148 -11 28 28 28 239 c 0
164 241 m 0
 164 164 165 67 251 67 c 0
 338 67 336 164 336 241 c 0
 336 323 336 416 250 416 c 0
 164 416 164 323 164 241 c 0
EndSplineSet
EndChar
StartChar: p
Encoding: 112 112 80
Width: 500
Flags: W
LayerCount: 2
Fore
SplineSet
37 -167 m 1
 37 472 l 1
 171 472 l 1
 171 422 l 1
 184 434 199 446 214 456 c 0
 240 472 271 483 308 483 c 0
 356 483 399 463 427 416 c 0
 450 377 463 319 463 238 c 0
 463 159 448 102 421 62 c 0
 386 11 332 -11 278 -11 c 0
 249 -11 226 -2 207 12 c 0
 195 21 184 32 174 44 c 1
 174 -167 l 1
 37 -167 l 1
174 96 m 1
 177 93 187 79 204 70 c 0
 213 65 223 62 235 62 c 0
 265 62 292 80 306 110 c 0
 329 156 325 205 326 247 c 2
 325 271 l 2
 323 295 320 334 305 364 c 4
 293 387 274 405 243 405 c 0
 228 405 214 401 204 396 c 0
 186 387 175 374 174 374 c 1
 174 96 l 1
EndSplineSet
EndChar
StartChar: q
Encoding: 113 113 81
Width: 500
Flags: W
LayerCount: 2
Fore
SplineSet
38 235 m 0
 38 413 117 483 224 483 c 0
 287 483 315 433 328 411 c 1
 328 483 l 1
 462 483 l 1xf4
 462 -167 l 1
 326 -167 l 1
 326 53 l 1xf8
 298 13 259 -11 214 -11 c 0
 177 -11 126 4 92 42 c 0
 44 96 38 176 38 235 c 0
175 235 m 0xf4
 175 181 179 127 200 94 c 4
 212 74 230 62 256 62 c 0
 289 62 310 83 328 108 c 1
 328 334 l 2
 328 370 300 405 264 405 c 0
 241 405 205 393 187 338 c 0
 176 306 175 270 175 235 c 0xf4
EndSplineSet
EndChar
StartChar: r
Encoding: 114 114 82
Width: 500
Flags: W
LayerCount: 2
Fore
SplineSet
102 0 m 1xd0
 102 478 l 1
 230 478 l 1
 230 403 l 1xe0
 231 357 l 1
 248 402 296 481 398 483 c 1
 398 381 l 1
 284 379 240 306 236 260 c 2
 236 0 l 1
 102 0 l 1xd0
EndSplineSet
EndChar
StartChar: s
Encoding: 115 115 83
Width: 500
Flags: W
LayerCount: 2
Fore
SplineSet
81 36 m 1
 100 146 l 1
 113 133 167 68 252 68 c 0
 306 68 319 99 319 124 c 0
 319 152 296 170 277 178 c 0
 257 186 224 188 190 204 c 0
 162 215 132 233 110 265 c 0
 102 278 87 304 87 342 c 0
 87 408 112 445 149 466 c 4
 181 484 215 489 249 489 c 0
 301 489 340 482 403 456 c 1
 386 360 l 1
 334 399 298 417 240 417 c 0
 194 417 187 387 187 367 c 0
 187 313 236 313 285 300 c 0
 346 286 419 235 419 143 c 0
 419 87 402 50 375 26 c 0
 342 -2 295 -11 253 -11 c 0
 195 -11 140 5 81 36 c 1
EndSplineSet
EndChar
StartChar: t
Encoding: 116 116 84
Width: 500
Flags: W
LayerCount: 2
Fore
SplineSet
77 400 m 1
 77 472 l 1
 147 472 l 1
 147 607 l 1
 275 607 l 1
 275 472 l 1xd0
 405 472 l 1
 405 400 l 1
 275 400 l 1
 275 158 l 2
 275 126 277 102 285 86 c 4
 291 74 301 67 320 67 c 0xe0
 371 67 402 103 405 103 c 1
 423 33 l 1
 368 7 311 -11 244 -11 c 0
 212 -11 190 0 175 16 c 0
 145 49 144 106 144 142 c 2
 144 400 l 1xe0
 77 400 l 1
EndSplineSet
EndChar
StartChar: u
Encoding: 117 117 85
Width: 500
Flags: W
LayerCount: 2
Fore
SplineSet
46 130 m 2
 46 472 l 1
 183 472 l 1
 183 130 l 2
 184 93 183 71 194 60 c 0
 201 53 214 50 234 50 c 0
 252 50 271 57 287 75 c 0
 300 89 310 110 315 140 c 0
 317 151 318 162 318 175 c 2
 318 472 l 1
 454 472 l 1
 454 0 l 1
 321 0 l 1
 321 46 l 1
 320 80 l 1
 312 62 297 36 271 16 c 0
 251 1 225 -11 191 -11 c 0
 145 -11 113 -4 91 10 c 0
 52 34 46 77 46 130 c 2
EndSplineSet
EndChar
StartChar: v
Encoding: 118 118 86
Width: 500
Flags: W
LayerCount: 2
Fore
SplineSet
38 472 m 1
 162 472 l 1
 218 248 l 2
 256 156 265 142 269 117 c 1
 287 165 331 436 341 472 c 1
 462 472 l 1
 353 0 l 1
 182 0 l 1
 38 472 l 1
EndSplineSet
EndChar
StartChar: w
Encoding: 119 119 87
Width: 500
Flags: W
LayerCount: 2
Fore
SplineSet
15 472 m 1
 137 472 l 1
 172 179 171 164 171 132 c 1
 171 201 198 457 201 472 c 1
 296 472 l 1
 332 276 l 2
 352 169 346 158 347 130 c 1
 351 226 363 452 369 472 c 1
 489 472 l 1
 440 0 l 1
 290 0 l 1
 249 347 254 313 252 388 c 1
 252 312 224 31 212 0 c 1
 103 0 l 1
 15 472 l 1
EndSplineSet
EndChar
StartChar: x
Encoding: 120 120 88
Width: 500
Flags: W
LayerCount: 2
Fore
SplineSet
23 0 m 1
 203 243 l 1
 203 247 l 1
 29 472 l 1
 164 472 l 1
 247 337 l 1
 248 337 l 1
 326 472 l 1
 458 472 l 1
 291 245 l 1
 291 244 l 1
 477 0 l 1
 339 0 l 1
 247 170 l 1
 159 0 l 1
 23 0 l 1
EndSplineSet
EndChar
StartChar: y
Encoding: 121 121 89
Width: 500
Flags: W
LayerCount: 2
Fore
SplineSet
38 472 m 1
 166 472 l 1
 271 179 260 175 266 137 c 1
 268 204 336 443 341 472 c 1
 462 472 l 1
 301 -39 l 2
 287 -88 266 -120 242 -142 c 0
 212 -169 178 -178 147 -178 c 0
 116 -178 84 -174 68 -171 c 1
 59 -69 l 1
 84 -80 110 -93 149 -93 c 0
 172 -93 188 -87 198 -77 c 0
 217 -59 221 -27 229 0 c 1
 229 0 l 1
 229 0 l 1
 38 472 l 1
EndSplineSet
EndChar
StartChar: z
Encoding: 122 122 90
Width: 500
Flags: W
LayerCount: 2
Fore
SplineSet
61 0 m 1
 61 49 l 1
 290 404 l 1
 76 402 l 1
 76 472 l 1
 436 472 l 1
 436 427 l 1
 209 74 l 1
 439 76 l 1
 439 0 l 1
 61 0 l 1
EndSplineSet
EndChar
StartChar: braceleft
Encoding: 123 123 91
Width: 500
Flags: MW
LayerCount: 2
Fore
SplineSet
30 227 m 1
 30 300 l 1
 115 301 175 346 181 403 c 2
 182 426 l 1
 182 624 l 2
 183 642 181 669 202 694 c 4
 215 710 236 724 272 735 c 0
 318 749 366 750 413 750 c 2
 470 750 l 1
 470 678 l 1
 451 678 l 2
 334 678 318 660 318 627 c 2
 318 426 l 2
 318 408 318 390 312 373 c 0
 287 303 200 268 121 264 c 1
 121 263 l 1
 213 259 290 217 312 155 c 0
 318 138 318 120 318 101 c 2
 318 -99 l 2
 318 -139 348 -150 450 -150 c 2
 470 -150 l 1
 470 -222 l 1
 413 -222 l 2
 368 -222 308 -220 260 -203 c 0
 219 -189 187 -163 182 -120 c 2
 182 102 l 2
 181 121 182 132 174 151 c 0
 153 201 92 227 30 227 c 1
EndSplineSet
EndChar
StartChar: bar
Encoding: 124 124 92
Width: 500
Flags: MW
LayerCount: 2
Fore
SplineSet
208 -173 m 2
 208 701 l 2
 208 718 213 730 220 737 c 0
 230 748 243 750 250 750 c 0
 259 750 271 748 280 738 c 0
 287 730 292 717 292 696 c 2
 292 -184 l 2
 291 -195 285 -204 278 -211 c 4
 270 -218 260 -222 250 -222 c 0
 241 -222 229 -219 220 -209 c 0
 213 -202 208 -190 208 -173 c 2
EndSplineSet
EndChar
StartChar: braceright
Encoding: 125 125 93
Width: 500
Flags: MW
LayerCount: 2
Fore
SplineSet
30 -150 m 1
 50 -150 l 2
 137 -150 168 -141 178 -121 c 0
 181 -115 182 -107 182 -99 c 2
 182 102 l 2
 182 120 182 138 189 156 c 0
 213 225 300 260 379 263 c 1
 379 264 l 1
 299 268 213 303 189 372 c 0
 182 390 182 408 182 426 c 2
 182 627 l 2
 182 667 157 677 30 678 c 1
 30 750 l 1
 88 750 l 2
 143 750 305 750 317 649 c 2
 318 624 l 1
 318 426 l 2
 319 406 318 395 326 377 c 0
 335 354 373 301 470 300 c 1
 470 227 l 1
 373 227 335 174 326 151 c 0
 316 129 319 112 318 102 c 2
 318 -97 l 2
 318 -110 319 -129 310 -148 c 4
 300 -170 278 -192 228 -207 c 0
 182 -221 134 -222 87 -222 c 2
 30 -222 l 1
 30 -150 l 1
EndSplineSet
EndChar
StartChar: asciitilde
Encoding: 126 126 126
Width: 500
Flags: MW
LayerCount: 2
Fore
SplineSet
6 566 m 1x58
 9 646 74 695 149 695 c 0x38
 249 695 292 639 354 639 c 0x58
 369 639 416 645 422 695 c 1x98
 494 695 l 1x38
 491 614 426 566 351 566 c 0x58
 253 566 208 622 147 622 c 0x38
 131 622 84 616 79 566 c 1x98
 6 566 l 1x58
EndSplineSet
EndChar
StartChar: exclamdown
Encoding: 161 161 108
Width: 500
Flags: MW
LayerCount: 2
Fore
SplineSet
184 -167 m 1xe0
 198 311 l 1
 302 311 l 1xd0
 314 -124 l 5
 316 -167 l 1
 184 -167 l 1xe0
EndSplineSet
Refer: 14 46 N 1 0 0 1 98 397 2
EndChar
StartChar: cent
Encoding: 162 162 104
Width: 500
Flags: MW
LayerCount: 2
Fore
SplineSet
9 236 m 0
 9 438 144 483 242 488 c 1
 242 561 l 1
 314 561 l 1
 314 489 l 1
 384 485 414 477 486 446 c 1
 469 351 l 1
 404 393 381 406 314 410 c 1
 314 68 l 1
 384 77 418 89 483 133 c 1
 491 35 l 1
 409 -2 359 -6 314 -10 c 1
 314 -83 l 1
 242 -83 l 1
 242 -10 l 1
 135 0 9 39 9 236 c 0
146 220 m 2
 147 154 160 87 242 70 c 1
 242 408 l 1
 138 387 147 280 146 242 c 2
 146 220 l 2
EndSplineSet
EndChar
StartChar: sterling
Encoding: 163 163 105
Width: 500
Flags: MW
LayerCount: 2
Fore
SplineSet
17 53 m 0
 17 105 64 139 140 139 c 0xbc
 147 139 155 139 162 138 c 1
 163 207 l 1
 163 311 l 1
 118 311 l 1
 118 384 l 1
 163 384 l 1
 163 512 l 2
 163 582 174 647 211 690 c 0
 238 722 261 742 323 742 c 0
 431 742 457 614 457 525 c 0
 457 473 426 467 411 465 c 1
 382 469 346 485 344 521 c 1
 344 521 l 1
 344 531 l 2
 344 636 341 669 323 669 c 0
 302 669 299 661 289 649 c 0
 279 637 277 568 277 532 c 2
 277 384 l 1
 348 384 l 1
 348 311 l 1
 277 311 l 1
 277 215 l 2
 276 179 276 143 270 113 c 1
 282 106 301 82 350 82 c 0
 364 82 370 106 370 139 c 1
 483 139 l 1xbc
 481 40 407 -11 332 -11 c 0x7c
 274 -11 236 18 217 23 c 1
 203 12 169 -11 98 -11 c 0
 49 -11 17 15 17 53 c 0
131 50 m 0
 131 64 118 81 120 81 c 0
 125 81 143 56 143 56 c 1
 125 55 125 51 123 51 c 0
 119 51 131 53 131 50 c 0
EndSplineSet
EndChar
StartChar: yen
Encoding: 165 165 60
Width: 500
Flags: MW
LayerCount: 2
Fore
SplineSet
16 214 m 0
 16 222 19 233 29 241 c 0
 36 246 47 250 63 250 c 2
 442 250 l 2
 451 250 458 248 464 245 c 0
 478 238 484 224 484 213 c 0
 484 203 480 190 464 183 c 0
 457 180 449 178 438 178 c 2
 62 178 l 2
 60 178 58 177 56 177 c 0
 52 177 48 177 45 178 c 0
 38 180 32 183 28 187 c 0
 20 195 16 205 16 214 c 0
16 450 m 4
 16 461 21 470 29 477 c 0
 33 481 38 483 43 485 c 0
 48 486 54 487 60 487 c 0
 62 487 66 487 66 487 c 2
 434 487 l 2
 442 487 450 487 457 485 c 0
 473 480 484 466 484 450 c 0
 484 438 476 420 455 415 c 0
 449 414 442 414 436 414 c 2
 64 414 l 2
 58 414 51 414 45 415 c 0
 36 417 29 422 24 428 c 0
 18 435 16 443 16 450 c 4
EndSplineSet
Refer: 57 89 N 1 0 0 1 0 0 2
EndChar
StartChar: logicalnot
Encoding: 172 172 129
Width: 500
Flags: MW
LayerCount: 2
Fore
SplineSet
50 361 m 0
 50 376 59 403 99 403 c 2
 400 403 l 2
 427 403 450 393 450 354 c 2
 450 105 l 2
 450 59 422 53 408 53 c 0
 388 53 370 67 367 91 c 0
 366 100 366 110 366 120 c 2
 366 320 l 1
 113 320 l 2
 109 320 105 319 100 319 c 0
 55 319 50 351 50 361 c 0
EndSplineSet
EndChar
StartChar: acute
Encoding: 180 180 132
Width: 500
Flags: MW
LayerCount: 2
Fore
SplineSet
132 542 m 1
 232 681 l 1
 368 681 l 1
 206 542 l 1
 132 542 l 1
EndSplineSet
EndChar
StartChar: periodcentered
Encoding: 183 183 136
Width: 500
Flags: MW
LayerCount: 2
Fore
SplineSet
194 194 m 1
 194 306 l 1
 306 306 l 1
 306 194 l 1
 194 194 l 1
EndSplineSet
EndChar
StartChar: onehalf
Encoding: 189 189 110
Width: 500
Flags: MW
LayerCount: 2
Fore
SplineSet
-4 292 m 0
 -4 303 0 312 6 319 c 0
 13 327 24 332 36 333 c 2
 62 334 l 1
 446 334 l 2
 462 334 477 333 488 326 c 0
 494 322 498 317 502 309 c 0
 504 303 504 298 504 292 c 0
 504 283 502 270 492 261 c 0
 485 255 473 250 456 250 c 2
 44 250 l 2
 27 250 17 255 10 261 c 0
 -2 271 -4 285 -4 292 c 0
82 667 m 1
 82 740 l 1
 156 740 266 754 312 773 c 9
 332 773 l 1
 332 490 l 1
 418 490 l 1
 418 417 l 1
 98 417 l 1
 98 490 l 1
 194 490 l 1
 194 672 l 1xfc
 160 669 104 667 82 667 c 1
50 144 m 1
 106 172 157 189 232 189 c 0
 353 189 438 135 438 57 c 0
 438 -10 340 -10 268 -33 c 0
 244 -41 245 -42 152 -78 c 1
 286 -78 l 1
 308 -77 l 1
 438 -77 l 1
 438 -167 l 1
 60 -167 l 1
 60 -78 l 1
 158 -34 l 2
 229 -8 296 6 296 54 c 0
 296 83 264 104 216 104 c 0
 157 104 127 77 116 68 c 1
 50 144 l 1
EndSplineSet
EndChar
StartChar: questiondown
Encoding: 191 191 109
Width: 500
Flags: MW
LayerCount: 2
Fore
SplineSet
52 -29 m 0xe0
 52 57 93 81 112 100 c 0
 138 125 155 152 166 182 c 0
 177 211 182 243 182 278 c 2
 182 311 l 1
 288 311 l 1
 288 278 l 2xc8
 288 245 286 210 264 154 c 0
 254 127 238 96 216 58 c 0
 196 25 188 18 188 -31 c 0xe0
 188 -62 188 -81 196 -92 c 4
 202 -101 215 -105 236 -105 c 0
 349 -105 410 -35 414 -35 c 1
 448 -129 l 1
 347 -177 277 -175 246 -178 c 2
 216 -178 l 2
 169 -176 125 -168 94 -141 c 0
 68 -119 52 -83 52 -29 c 0xe0
EndSplineSet
Refer: 14 46 N 1 0 0 1 84 397 2
EndChar
StartChar: Adieresis
Encoding: 196 196 95
Width: 500
Flags: MW
LayerCount: 2
Fore
SplineSet
86 788 m 1
 86 900 l 1
 198 900 l 1
 198 788 l 1
 86 788 l 1
300 788 m 1
 300 900 l 1
 412 900 l 1
 412 788 l 1
 300 788 l 1
EndSplineSet
Refer: 33 65 N 1 0 0 1 0 0 2
EndChar
StartChar: Ccedilla
Encoding: 199 199 101
Width: 500
Flags: MW
LayerCount: 2
Fore
SplineSet
166 -168 m 1
 258 -23 l 1
 331 -23 l 1
 270 -168 l 1
 166 -168 l 1
EndSplineSet
Refer: 35 67 N 1 0 0 1 0 0 2
EndChar
StartChar: Ntilde
Encoding: 209 209 102
Width: 500
Flags: MW
LayerCount: 2
Fore
SplineSet
75 770 m 1xd7
 77 849 124 903 186 903 c 0xcf
 255 903 281 849 325 843 c 0xd7
 338 842 341 845 345 846 c 1
 360 857 368 867 369 903 c 1xe7
 442 903 l 1xcf
 440 824 393 770 331 770 c 0xd7
 262 770 236 824 192 829 c 0xcf
 178 831 180 828 172 826 c 1
 157 815 149 806 148 770 c 1xe7
 75 770 l 1xd7
EndSplineSet
Refer: 46 78 N 1 0 0 1 0 0 2
EndChar
StartChar: Odieresis
Encoding: 214 214 111
Width: 500
Flags: MW
LayerCount: 2
Fore
SplineSet
86 788 m 5
 86 900 l 5
 198 900 l 5
 198 788 l 5
 86 788 l 5
300 788 m 5
 300 900 l 5
 412 900 l 5
 412 788 l 5
 300 788 l 5
EndSplineSet
Refer: 47 79 N 1 0 0 1 0 0 2
EndChar
StartChar: germandbls
Encoding: 223 223 99
Width: 500
Flags: W
LayerCount: 2
Fore
SplineSet
39 0 m 25
 39 569 l 2
 39 723 164 733 243 733 c 0
 346 733 437 700 437 569 c 0xf8
 437 434 371 408 322 403 c 0
 306 401 298 399 298 351 c 0
 298 296 311 305 347 294 c 0
 405 280 461 226 461 140 c 0
 461 19 388 -11 322 -11 c 0
 270 -11 228 23 218 45 c 1
 237 144 l 1
 242 130 280 68 319 68 c 0
 337 68 362 78 362 119 c 0xf4
 362 127 360 155 336 171 c 0
 315 186 279 174 246 226 c 0
 227 255 219 292 219 333 c 0
 219 437 260 471 310 475 c 1
 310 480 310 485 310 491 c 0
 310 515 309 539 308 564 c 0
 308 604 315 660 241 660 c 0
 179 660 170 632 170 569 c 2
 170 0 l 25
 39 0 l 25
EndSplineSet
EndChar
StartChar: acircumflex
Encoding: 226 226 118
Width: 500
Flags: MW
LayerCount: 2
Fore
SplineSet
76 541 m 1
 196 692 l 1
 330 692 l 1
 424 541 l 1
 350 541 l 1
 250 631 l 1xe8
 150 541 l 1
 76 541 l 1
EndSplineSet
Refer: 65 97 N 1 0 0 1 0 0 2
EndChar
StartChar: ccedilla
Encoding: 231 231 100
Width: 500
Flags: MW
LayerCount: 2
Fore
SplineSet
168 -168 m 1
 260 -23 l 1
 332 -23 l 1
 272 -168 l 1
 168 -168 l 1
EndSplineSet
Refer: 67 99 N 1 0 0 1 0 0 2
EndChar
StartChar: ecircumflex
Encoding: 234 234 119
Width: 500
Flags: MW
LayerCount: 2
Fore
SplineSet
76 541 m 1
 195 692 l 1
 305 692 l 1
 424 541 l 1
 364 541 l 2
 342 542 346 548 249 631 c 1
 150 542 155 542 135 541 c 2
 76 541 l 1
EndSplineSet
Refer: 69 101 N 1 0 0 1 0 0 2
EndChar
StartChar: iacute
Encoding: 237 237 98
Width: 500
Flags: MW
LayerCount: 2
Fore
SplineSet
132 542 m 1
 232 681 l 1
 368 681 l 1
 206 542 l 1
 132 542 l 1
183 0 m 1
 183 472 l 1
 317 472 l 1
 317 0 l 1
 183 0 l 1
EndSplineSet
EndChar
StartChar: icircumflex
Encoding: 238 238 120
Width: 500
Flags: MW
LayerCount: 2
Fore
SplineSet
76 541 m 1
 196 692 l 1
 304 692 l 1
 424 541 l 1
 350 541 l 1
 250 631 l 1
 250 631 l 1xe0
 150 541 l 1
 76 541 l 1
183 0 m 1
 183 472 l 1
 317 472 l 1
 317 0 l 1
 183 0 l 1
EndSplineSet
EndChar
StartChar: idieresis
Encoding: 239 239 115
Width: 500
Flags: MW
LayerCount: 2
Fore
SplineSet
183 0 m 5
 183 472 l 5
 317 472 l 5
 317 0 l 5
 183 0 l 5
EndSplineSet
Refer: 133 168 N 1 0 0 1 0 0 2
EndChar
StartChar: ntilde
Encoding: 241 241 103
Width: 500
Flags: MW
LayerCount: 2
Fore
SplineSet
67 579 m 1x58
 70 655 119 704 178 704 c 0x38
 247 704 285 652 321 652 c 0x58
 337 652 358 662 361 704 c 1x98
 433 704 l 1x38
 431 635 388 579 321 579 c 0x58
 250 579 220 631 179 631 c 0x38
 163 631 143 622 140 579 c 1x98
 67 579 l 1x58
EndSplineSet
Refer: 78 110 N 1 0 0 1 0 0 2
EndChar
StartChar: quoteleft
Encoding: 8216 8216 135
Width: 500
Flags: MW
LayerCount: 2
Fore
SplineSet
283 452 m 1
 283 565 l 25
 283 565 283 580 285 584 c 0
 288 592 348 695 348 695 c 1
 414 695 l 1
 375 583 l 1
 414 583 l 1
 414 452 l 1
 283 452 l 1
EndSplineSet
EndChar
StartChar: quotedblleft
Encoding: 8220 8220 134
Width: 500
Flags: MW
LayerCount: 2
Fore
SplineSet
368 452 m 1
 368 565 l 25
 368 565 368 580 370 584 c 0
 373 592 433 695 433 695 c 1
 499 695 l 1
 460 583 l 1
 499 583 l 1
 499 452 l 1
 368 452 l 1
128 452 m 1
 128 565 l 25
 128 565 128 580 130 584 c 0
 133 592 193 695 193 695 c 1
 259 695 l 1
 220 583 l 1
 259 583 l 1
 259 452 l 1
 128 452 l 1
EndSplineSet
EndChar
StartChar: overline
Encoding: 8254 8254 94
Width: 500
Flags: MW
LayerCount: 2
Fore
SplineSet
0 771 m 0
 0 787 9 813 49 813 c 2
 446 813 l 2
 493 813 500 788 500 771 c 0
 500 756 493 729 448 729 c 2
 50 729 l 2
 5 729 0 757 0 771 c 0
EndSplineSet
EndChar
StartChar: celsius
Encoding: 8451 8451 137
Width: 500
Flags: MW
LayerCount: 2
Fore
SplineSet
5 572 m 0
 5 653 35 695 78 695 c 0
 123 695 151 651 151 573 c 0
 151 491 121 450 78 450 c 0
 30 450 5 500 5 572 c 0
64 572 m 0
 64 539 71 534 79 534 c 3
 91 534 92 549 92 573 c 0xee
 92 603 87 611 79 611 c 0
 71 611 64 607 64 572 c 0
EndSplineSet
Refer: 35 67 N 1 0 0 1 32 0 2
EndChar
StartChar: minus
Encoding: 8722 8722 131
Width: 500
Flags: MW
LayerCount: 2
Fore
SplineSet
76 263 m 0
 76 277 84 300 119 300 c 2
 379 300 l 2
 420 300 424 274 424 264 c 0
 424 251 417 227 379 227 c 2
 119 227 l 2
 80 227 76 254 76 263 c 0
EndSplineSet
EndChar
StartChar: lthorizform
Encoding: 9472 9472 138
Width: 500
Flags: W
LayerCount: 2
Fore
SplineSet
0 270 m 1
 0 330 l 1
 500 330 l 1
 500 270 l 1
 0 270 l 1
EndSplineSet
EndChar
StartChar: ltdashtriphorizform
Encoding: 9476 9476 142
Width: 500
Flags: W
LayerCount: 2
Fore
SplineSet
30 270 m 1
 30 330 l 1
 137 330 l 1
 137 270 l 1
 30 270 l 1
196.5 270 m 1
 196.5 330 l 1
 303.5 330 l 1
 303.5 270 l 1
 196.5 270 l 1
363 270 m 1
 363 330 l 1
 470 330 l 1
 470 270 l 1
 363 270 l 1
EndSplineSet
EndChar
StartChar: ltdashtripvertform
Encoding: 9478 9478 144
Width: 500
Flags: W
LayerCount: 2
Fore
SplineSet
220 74 m 1
 280 74 l 1
 280 -140 l 1
 220 -140 l 1
 220 74 l 1
220 193 m 1
 220 407 l 1
 280 407 l 1
 280 193 l 1
 220 193 l 1
220 526 m 1
 220 740 l 1
 280 740 l 1
 280 526 l 1
 220 526 l 1
EndSplineSet
EndChar
StartChar: hvdashtripvertform
Encoding: 9479 9479 145
Width: 500
Flags: W
LayerCount: 2
Fore
SplineSet
160 74 m 1
 340 74 l 1
 340 -140 l 1
 160 -140 l 1
 160 74 l 1
160 193 m 1
 160 407 l 1
 340 407 l 1
 340 193 l 1
 160 193 l 1
160 526 m 1
 160 740 l 1
 340 740 l 1
 340 526 l 1
 160 526 l 1
EndSplineSet
EndChar
StartChar: ltdashquadhorizform
Encoding: 9480 9480 146
Width: 500
Flags: W
LayerCount: 2
Fore
SplineSet
20.25 270 m 1
 20.25 330 l 1
 103.75 330 l 1
 103.75 270 l 1
 20.25 270 l 1
145.75 270 m 1
 145.75 330 l 1
 228.75 330 l 1
 228.75 270 l 1
 145.75 270 l 1
270.25 270 m 1
 270.25 330 l 1
 353.75 330 l 1
 353.75 270 l 1
 270.25 270 l 1
395.25 270 m 1
 395.25 330 l 1
 478.75 330 l 1
 478.75 270 l 1
 395.25 270 l 1
EndSplineSet
EndChar
StartChar: ltdashquadvertform
Encoding: 9482 9482 148
Width: 500
Flags: W
LayerCount: 2
Fore
SplineSet
220 9 m 1
 280 9 l 1
 280 -158 l 1
 220 -158 l 1
 220 9 l 1
220 92 m 1
 220 259 l 1
 280 259 l 1
 280 92 l 1
 220 92 l 1
220 342 m 1
 220 508 l 1
 280 508 l 1
 280 342 l 1
 220 342 l 1
220 592 m 1
 220 759 l 1
 280 759 l 1
 280 592 l 1
 220 592 l 1
EndSplineSet
EndChar
StartChar: hvdnrtform
Encoding: 9487 9487 153
Width: 500
Flags: W
LayerCount: 2
Fore
SplineSet
160 -200 m 1
 160 390 l 1
 500 390 l 1
 500 210 l 1
 340 210 l 1
 340 -200 l 1
 160 -200 l 1
EndSplineSet
EndChar
StartChar: ltuprtform
Encoding: 9492 9492 158
Width: 500
Flags: W
LayerCount: 2
Fore
SplineSet
220 270 m 1
 220 800 l 1
 280 800 l 1
 280 330 l 1
 500 330 l 1
 500 270 l 1
 220 270 l 1
EndSplineSet
EndChar
StartChar: hvuprtform
Encoding: 9495 9495 161
Width: 500
Flags: W
LayerCount: 2
Fore
SplineSet
160 210 m 1
 160 800 l 1
 340 800 l 1
 340 390 l 1
 500 390 l 1
 500 210 l 1
 160 210 l 1
EndSplineSet
EndChar
StartChar: uphvleftltform
Encoding: 9498 9498 164
Width: 500
Flags: W
LayerCount: 2
Fore
SplineSet
0 270 m 1
 0 330 l 1
 160 330 l 1
 160 800 l 1
 340 800 l 1
 340 270 l 1
 0 270 l 1
EndSplineSet
EndChar
StartChar: ltvertrightform
Encoding: 9500 9500 166
Width: 500
Flags: W
LayerCount: 2
Fore
SplineSet
220 -200 m 1
 220 800 l 1
 280 800 l 1
 280 330 l 1
 500 330 l 1
 500 270 l 1
 280 270 l 1
 280 -200 l 1
 220 -200 l 1
EndSplineSet
EndChar
StartChar: vertltrthvform
Encoding: 9501 9501 167
Width: 500
Flags: W
LayerCount: 2
Fore
SplineSet
220 -200 m 1
 220 800 l 1
 280 800 l 1
 280 390 l 1
 500 390 l 1
 500 210 l 1
 280 210 l 1
 280 -200 l 1
 220 -200 l 1
EndSplineSet
EndChar
StartChar: uphvrtdnltform
Encoding: 9502 9502 168
Width: 500
Flags: W
LayerCount: 2
Fore
SplineSet
160 270 m 1
 160 800 l 1
 340 800 l 1
 340 330 l 1
 500 330 l 1
 500 270 l 1
 280 270 l 1
 280 -200 l 1
 220 -200 l 1
 220 270 l 1
 160 270 l 1
EndSplineSet
EndChar
StartChar: verthvrtltform
Encoding: 9504 9504 170
Width: 500
Flags: W
LayerCount: 2
Fore
SplineSet
160 -200 m 1
 160 800 l 1
 340 800 l 1
 340 330 l 1
 500 330 l 1
 500 270 l 1
 340 270 l 1
 340 -200 l 1
 160 -200 l 1
EndSplineSet
EndChar
StartChar: upltrtdnhvform
Encoding: 9506 9506 172
Width: 500
Flags: W
LayerCount: 2
Fore
SplineSet
160 -200 m 1
 160 390 l 1
 220 390 l 1
 220 800 l 1
 280 800 l 1
 280 390 l 1
 500 390 l 1
 500 210 l 1
 340 210 l 1
 340 -200 l 1
 160 -200 l 1
EndSplineSet
EndChar
StartChar: vtltlefthvform
Encoding: 9509 9509 175
Width: 500
Flags: W
LayerCount: 2
Fore
SplineSet
0 210 m 1
 0 390 l 1
 220 390 l 1
 220 800 l 1
 280 800 l 1
 280 -200 l 1
 220 -200 l 1
 220 210 l 1
 0 210 l 1
EndSplineSet
EndChar
StartChar: uphvleftdnltform
Encoding: 9510 9510 176
Width: 500
Flags: W
LayerCount: 2
Fore
SplineSet
0 270 m 1
 0 330 l 1
 160 330 l 1
 160 800 l 1
 340 800 l 1
 340 270 l 1
 280 270 l 1
 280 -200 l 1
 220 -200 l 1
 220 270 l 1
 0 270 l 1
EndSplineSet
EndChar
StartChar: dnhvleftupltform
Encoding: 9511 9511 177
Width: 500
Flags: W
LayerCount: 2
Fore
SplineSet
0 270 m 1
 0 330 l 1
 220 330 l 1
 220 800 l 1
 280 800 l 1
 280 330 l 1
 340 330 l 1
 340 -200 l 1
 160 -200 l 1
 160 270 l 1
 0 270 l 1
EndSplineSet
EndChar
StartChar: verthvleftltform
Encoding: 9512 9512 178
Width: 500
Flags: W
LayerCount: 2
Fore
SplineSet
0 270 m 1
 0 330 l 1
 160 330 l 1
 160 800 l 1
 340 800 l 1
 340 -200 l 1
 160 -200 l 1
 160 270 l 1
 0 270 l 1
EndSplineSet
EndChar
StartChar: dnltleftuphvform
Encoding: 9513 9513 179
Width: 500
Flags: W
LayerCount: 2
Fore
SplineSet
0 210 m 1
 0 390 l 1
 160 390 l 1
 160 800 l 1
 340 800 l 1
 340 210 l 1
 280 210 l 1
 280 -200 l 1
 220 -200 l 1
 220 210 l 1
 0 210 l 1
EndSplineSet
EndChar
StartChar: dnhvhorizltform
Encoding: 9520 9520 186
Width: 500
Flags: W
LayerCount: 2
Fore
SplineSet
0 270 m 1
 0 330 l 1
 500 330 l 1
 500 270 l 1
 340 270 l 1
 340 -200 l 1
 160 -200 l 1
 160 270 l 1
 0 270 l 1
EndSplineSet
EndChar
StartChar: leftltrtdnhvform
Encoding: 9522 9522 188
Width: 500
Flags: W
LayerCount: 2
Fore
SplineSet
0 270 m 1
 0 330 l 1
 160 330 l 1
 160 390 l 1
 500 390 l 1
 500 210 l 1
 340 210 l 1
 340 -200 l 1
 160 -200 l 1
 160 270 l 1
 0 270 l 1
EndSplineSet
EndChar
StartChar: ltuphorizform
Encoding: 9524 9524 190
Width: 500
Flags: W
LayerCount: 2
Fore
SplineSet
0 270 m 1
 0 330 l 1
 220 330 l 1
 220 800 l 1
 280 800 l 1
 280 330 l 1
 500 330 l 1
 500 270 l 1
 0 270 l 1
EndSplineSet
EndChar
StartChar: lefthvrtupltform
Encoding: 9525 9525 191
Width: 500
Flags: W
LayerCount: 2
Fore
SplineSet
0 210 m 1
 0 390 l 1
 220 390 l 1
 220 800 l 1
 280 800 l 1
 280 330 l 1
 500 330 l 1
 500 270 l 1
 280 270 l 1
 280 210 l 1
 0 210 l 1
EndSplineSet
EndChar
StartChar: rthvleftupltform
Encoding: 9526 9526 192
Width: 500
Flags: W
LayerCount: 2
Fore
SplineSet
0 270 m 1
 0 330 l 1
 220 330 l 1
 220 800 l 1
 280 800 l 1
 280 390 l 1
 500 390 l 1
 500 210 l 1
 220 210 l 1
 220 270 l 1
 0 270 l 1
EndSplineSet
EndChar
StartChar: uplthorizhvform
Encoding: 9527 9527 193
Width: 500
Flags: W
LayerCount: 2
Fore
SplineSet
0 210 m 1
 0 390 l 1
 220 390 l 1
 220 800 l 1
 280 800 l 1
 280 390 l 1
 500 390 l 1
 500 210 l 1
 0 210 l 1
EndSplineSet
EndChar
StartChar: rtltleftuphvform
Encoding: 9529 9529 195
Width: 500
Flags: W
LayerCount: 2
Fore
SplineSet
0 210 m 1
 0 390 l 1
 160 390 l 1
 160 800 l 1
 340 800 l 1
 340 330 l 1
 500 330 l 1
 500 270 l 1
 340 270 l 1
 340 210 l 1
 0 210 l 1
EndSplineSet
EndChar
StartChar: lefthvrtvertltform
Encoding: 9533 9533 199
Width: 500
Flags: W
LayerCount: 2
Fore
SplineSet
0 210 m 1
 0 390 l 1
 220 390 l 1
 220 800 l 1
 280 800 l 1
 280 330 l 1
 500 330 l 1
 500 270 l 1
 280 270 l 1
 280 -200 l 1
 220 -200 l 1
 220 210 l 1
 0 210 l 1
EndSplineSet
EndChar
StartChar: vertlthorizhvform
Encoding: 9535 9535 201
Width: 500
Flags: W
LayerCount: 2
Fore
SplineSet
0 210 m 1
 0 390 l 1
 220 390 l 1
 220 800 l 1
 280 800 l 1
 280 390 l 1
 500 390 l 1
 500 210 l 1
 280 210 l 1
 280 -200 l 1
 220 -200 l 1
 220 210 l 1
 0 210 l 1
EndSplineSet
EndChar
StartChar: uphvdnhorizltform
Encoding: 9536 9536 202
Width: 500
Flags: W
LayerCount: 2
Fore
SplineSet
0 270 m 1
 0 330 l 1
 160 330 l 1
 160 800 l 1
 340 800 l 1
 340 330 l 1
 500 330 l 1
 500 270 l 1
 280 270 l 1
 280 -200 l 1
 220 -200 l 1
 220 270 l 1
 0 270 l 1
EndSplineSet
EndChar
StartChar: rtuphvleftdnltform
Encoding: 9540 9540 206
Width: 500
Flags: W
LayerCount: 2
Fore
SplineSet
0 270 m 1
 0 330 l 1
 160 330 l 1
 160 800 l 1
 340 800 l 1
 340 390 l 1
 500 390 l 1
 500 210 l 1
 280 210 l 1
 280 -200 l 1
 220 -200 l 1
 220 210 l 1
 160 210 l 1
 160 270 l 1
 0 270 l 1
EndSplineSet
EndChar
StartChar: rtdnhvleftupltform
Encoding: 9542 9542 208
Width: 500
Flags: W
LayerCount: 2
Fore
SplineSet
0 270 m 1
 0 330 l 1
 160 330 l 1
 160 390 l 1
 220 390 l 1
 220 800 l 1
 280 800 l 1
 280 390 l 1
 500 390 l 1
 500 210 l 1
 340 210 l 1
 340 -200 l 1
 160 -200 l 1
 160 270 l 1
 0 270 l 1
EndSplineSet
EndChar
StartChar: dnltuphorizhvform
Encoding: 9543 9543 209
Width: 500
Flags: W
LayerCount: 2
Fore
SplineSet
0 210 m 1
 0 390 l 1
 160 390 l 1
 160 800 l 1
 340 800 l 1
 340 390 l 1
 500 390 l 1
 500 210 l 1
 280 210 l 1
 280 -200 l 1
 220 -200 l 1
 220 210 l 1
 0 210 l 1
EndSplineSet
EndChar
StartChar: upltdnhorizhvform
Encoding: 9544 9544 210
Width: 500
Flags: W
LayerCount: 2
Fore
SplineSet
0 210 m 1
 0 390 l 1
 220 390 l 1
 220 800 l 1
 280 800 l 1
 280 390 l 1
 500 390 l 1
 500 210 l 1
 340 210 l 1
 340 -200 l 1
 160 -200 l 1
 160 210 l 1
 0 210 l 1
EndSplineSet
EndChar
StartChar: rtltleftverthvform
Encoding: 9545 9545 211
Width: 500
Flags: W
LayerCount: 2
Fore
SplineSet
0 210 m 1
 0 390 l 1
 160 390 l 1
 160 800 l 1
 340 800 l 1
 340 330 l 1
 500 330 l 1
 500 270 l 1
 340 270 l 1
 340 -200 l 1
 160 -200 l 1
 160 210 l 1
 0 210 l 1
EndSplineSet
EndChar
StartChar: leftltrtverthvform
Encoding: 9546 9546 212
Width: 500
Flags: W
LayerCount: 2
Fore
SplineSet
0 270 m 1
 0 330 l 1
 160 330 l 1
 160 800 l 1
 340 800 l 1
 340 390 l 1
 500 390 l 1
 500 210 l 1
 340 210 l 1
 340 -200 l 1
 160 -200 l 1
 160 270 l 1
 0 270 l 1
EndSplineSet
EndChar
StartChar: hvverthorizform
Encoding: 9547 9547 213
Width: 500
Flags: W
LayerCount: 2
Fore
SplineSet
0 210 m 1
 0 390 l 1
 160 390 l 1
 160 800 l 1
 340 800 l 1
 340 390 l 1
 500 390 l 1
 500 210 l 1
 340 210 l 1
 340 -200 l 1
 160 -200 l 1
 160 210 l 1
 0 210 l 1
EndSplineSet
EndChar
StartChar: zero.slash
Encoding: 63032 63032 127
Width: 500
Flags: W
LayerCount: 2
Fore
SplineSet
40 344 m 0
 40 356 40 368 40 380 c 0
 42 509 59 664 187 706 c 0
 205 713 226 717 250 717 c 0
 296 717 347 700 389 654 c 0
 460 576 460 431 460 362 c 2
 460 352 l 2
 460 213 458 32 312 -12 c 0
 294 -18 273 -22 249 -22 c 0
 50 -22 40 180 40 344 c 0
174 352 m 0
 174 310 174 275 175 244 c 1
 293 622 l 1
 281 636 266 644 250 644 c 0
 175 644 174 516 174 396 c 0
 174 381 174 366 174 352 c 0
198 87 m 1
 204 75 211 67 221 60 c 0
 229 55 239 50 250 50 c 0
 255 50 276 51 294 76 c 0
 327 120 324 200 326 357 c 0
 326 368 327 380 327 393 c 0
 327 425 326 460 324 492 c 1
 198 87 l 1
EndSplineSet
EndChar
